<svg width="320" height="320" viewBox="0 0 320 320" fill="none" xmlns="http://www.w3.org/2000/svg">
<path d="M227.881 227.119L227.88 270.39H299.999V227.119H227.881Z" fill="#3B2AEA"/>
<path d="M116.926 245.007C125.901 245.007 133.722 244.109 140.389 242.314C147.056 240.263 152.44 237.186 156.543 233.083C160.646 228.724 163.979 224.237 166.543 219.621C169.108 215.006 170.903 209.108 171.928 201.928C173.21 194.749 173.98 188.21 174.236 182.312C174.749 176.415 175.005 169.107 175.005 160.389C175.005 151.67 174.749 144.362 174.236 138.465C173.98 132.567 173.21 126.028 171.928 118.849C170.903 111.669 169.108 105.771 166.543 101.156C163.979 96.5402 160.646 92.1811 156.543 88.0784C152.44 83.7193 147.056 80.6422 140.389 78.8473C133.722 76.7959 125.901 75.7703 116.926 75.7703C107.952 75.7703 100.131 76.7959 93.464 78.8473C86.7971 80.6422 81.4123 83.7193 77.3096 88.0784C73.2069 92.1811 69.8735 96.5402 67.3093 101.156C64.7451 105.771 62.822 111.669 61.5399 118.849C60.5142 126.028 59.7449 132.567 59.2321 138.465C58.9757 144.362 58.8475 151.67 58.8475 160.389C58.8475 169.107 58.9757 176.415 59.2321 182.312C59.7449 188.21 60.5142 194.749 61.5399 201.928C62.822 209.108 64.7451 215.006 67.3093 219.621C69.8735 224.237 73.2069 228.724 77.3096 233.083C81.4123 237.186 86.7971 240.263 93.464 242.314C100.131 244.109 107.952 245.007 116.926 245.007ZM116.926 275.777C100.003 275.777 85.3868 273.598 73.0787 269.238C61.027 264.879 51.6677 259.366 45.0009 252.699C38.334 246.032 32.9492 237.314 28.8465 226.545C25.0002 215.775 22.5642 205.518 21.5385 195.774C20.5128 185.774 20 173.979 20 160.389C20 146.798 20.5128 135.131 21.5385 125.387C22.5642 115.387 25.0002 105.002 28.8465 94.2324C32.9492 83.4628 38.334 74.7446 45.0009 68.0777C51.6677 61.4108 61.027 55.8978 73.0787 51.5387C85.3868 47.1796 100.003 45 116.926 45C133.85 45 148.338 47.1796 160.389 51.5387C172.697 55.8978 182.185 61.4108 188.852 68.0777C195.519 74.7446 200.775 83.4628 204.622 94.2324C208.724 105.002 211.289 115.387 212.314 125.387C213.34 135.131 213.853 146.798 213.853 160.389C213.853 173.979 213.34 185.774 212.314 195.774C211.289 205.518 208.724 215.775 204.622 226.545C200.775 237.314 195.519 246.032 188.852 252.699C182.185 259.366 172.697 264.879 160.389 269.238C148.338 273.598 133.85 275.777 116.926 275.777Z" fill="#3B2AEA"/>
</svg>
