<svg width="320" height="320" viewBox="0 0 320 320" fill="none" xmlns="http://www.w3.org/2000/svg">
<path d="M227.881 227.121L227.88 270.392H299.999V227.121H227.881Z" fill="#191919"/>
<path d="M297.595 229.525V267.988H230.284L230.285 229.525H297.595Z" stroke="#191919" stroke-opacity="0.31" stroke-width="4.80786"/>
<path d="M116.926 245.007C125.901 245.007 133.722 244.109 140.389 242.314C147.056 240.263 152.44 237.186 156.543 233.083C160.646 228.724 163.979 224.237 166.543 219.621C169.108 215.006 170.903 209.108 171.928 201.928C173.21 194.749 173.98 188.21 174.236 182.312C174.749 176.415 175.005 169.107 175.005 160.389C175.005 151.67 174.749 144.362 174.236 138.465C173.98 132.567 173.21 126.028 171.928 118.849C170.903 111.669 169.108 105.771 166.543 101.156C163.979 96.5402 160.646 92.1811 156.543 88.0784C152.44 83.7193 147.056 80.6422 140.389 78.8473C133.722 76.7959 125.901 75.7703 116.926 75.7703C107.952 75.7703 100.131 76.7959 93.464 78.8473C86.7971 80.6422 81.4123 83.7193 77.3096 88.0784C73.2069 92.1811 69.8735 96.5402 67.3093 101.156C64.7451 105.771 62.822 111.669 61.5399 118.849C60.5142 126.028 59.7449 132.567 59.2321 138.465C58.9757 144.362 58.8475 151.67 58.8475 160.389C58.8475 169.107 58.9757 176.415 59.2321 182.312C59.7449 188.21 60.5142 194.749 61.5399 201.928C62.822 209.108 64.7451 215.006 67.3093 219.621C69.8735 224.237 73.2069 228.724 77.3096 233.083C81.4123 237.186 86.7971 240.263 93.464 242.314C100.131 244.109 107.952 245.007 116.926 245.007ZM116.926 275.777C100.003 275.777 85.3868 273.598 73.0787 269.238C61.027 264.879 51.6677 259.366 45.0009 252.699C38.334 246.032 32.9492 237.314 28.8465 226.545C25.0002 215.775 22.5642 205.518 21.5385 195.774C20.5128 185.774 20 173.979 20 160.389C20 146.798 20.5128 135.131 21.5385 125.387C22.5642 115.387 25.0002 105.002 28.8465 94.2324C32.9492 83.4628 38.334 74.7446 45.0009 68.0777C51.6677 61.4108 61.027 55.8978 73.0787 51.5387C85.3868 47.1796 100.003 45 116.926 45C133.85 45 148.338 47.1796 160.389 51.5387C172.697 55.8978 182.185 61.4108 188.852 68.0777C195.519 74.7446 200.775 83.4628 204.622 94.2324C208.724 105.002 211.289 115.387 212.314 125.387C213.34 135.131 213.853 146.798 213.853 160.389C213.853 173.979 213.34 185.774 212.314 195.774C211.289 205.518 208.724 215.775 204.622 226.545C200.775 237.314 195.519 246.032 188.852 252.699C182.185 259.366 172.697 264.879 160.389 269.238C148.338 273.598 133.85 275.777 116.926 275.777Z" fill="#191919"/>
<path d="M116.927 46.8027C133.704 46.8028 147.973 48.9651 159.776 53.2344L159.787 53.2383C171.934 57.5402 181.159 62.934 187.577 69.3525C194.019 75.7948 199.149 84.2681 202.924 94.8389L202.93 94.8564L202.937 94.874C206.991 105.517 209.513 115.749 210.521 125.571L210.521 125.576C211.539 135.239 212.05 146.839 212.05 160.389C212.05 173.937 211.538 185.669 210.521 195.591C209.513 205.154 206.992 215.256 202.937 225.902L202.93 225.921L202.924 225.938C199.149 236.509 194.019 244.983 187.577 251.425C181.159 257.843 171.934 263.237 159.787 267.539L159.776 267.543C147.973 271.812 133.704 273.974 116.927 273.974C100.156 273.974 85.7571 271.814 73.6924 267.543C61.8049 263.243 52.7007 257.85 46.2754 251.425C39.8236 244.973 34.5631 236.486 30.5312 225.902C26.8516 215.592 24.4895 205.788 23.4297 196.485L23.332 195.586C22.3147 185.665 21.8027 173.935 21.8027 160.389C21.8027 146.839 22.3149 135.239 23.332 125.576V125.571C24.3399 115.744 26.7345 105.513 30.5312 94.874C34.5631 84.2906 39.8237 75.8043 46.2754 69.3525C52.7007 62.9273 61.8041 57.5331 73.6914 53.2334C85.7563 48.9622 100.156 46.8027 116.927 46.8027ZM116.927 73.9678C107.831 73.9678 99.8307 75.004 92.9561 77.1162C86.0424 78.9839 80.3668 82.2063 76.0117 86.8271C71.8128 91.03 68.3816 95.5134 65.7334 100.28C63.0436 105.122 61.0694 111.225 59.7646 118.531L59.7549 118.594C58.7255 125.799 57.9518 132.372 57.4355 138.309L57.4326 138.348L57.4307 138.387C57.1727 144.319 57.0449 151.656 57.0449 160.389C57.0449 169.122 57.1727 176.458 57.4307 182.391L57.4326 182.43L57.4355 182.469C57.9518 188.406 58.7255 194.978 59.7549 202.184L59.7598 202.215L59.7646 202.245C61.0694 209.552 63.0435 215.655 65.7334 220.497C68.3789 225.259 71.8055 229.866 75.9971 234.319L76.0156 234.339L76.0352 234.358C80.3838 238.707 86.0424 241.917 92.9336 244.037L92.9648 244.047L92.9951 244.056C99.8526 245.902 107.838 246.81 116.927 246.81C126.015 246.81 134 245.902 140.857 244.056L140.889 244.047L140.919 244.037C147.81 241.917 153.47 238.707 157.818 234.358L157.837 234.339L157.856 234.319C162.048 229.866 165.474 225.259 168.119 220.497C170.814 215.646 172.656 209.54 173.703 202.245C174.993 195.02 175.773 188.413 176.035 182.43C176.552 176.469 176.809 169.118 176.809 160.389C176.809 151.656 176.551 144.303 176.034 138.341C175.788 132.734 175.089 126.579 173.939 119.882L173.703 118.531C172.656 111.237 170.814 105.132 168.119 100.28C165.471 95.5134 162.04 91.03 157.841 86.8271C153.486 82.2061 147.81 78.9839 140.896 77.1162C134.021 75.0043 126.022 73.9678 116.927 73.9678Z" stroke="#191919" stroke-opacity="0.7" stroke-width="3.60589"/>
</svg>
