<svg width="320" height="320" viewBox="0 0 320 320" fill="none" xmlns="http://www.w3.org/2000/svg">
<path d="M227.708 222.361L227.708 265.632H299.826V222.361H227.708Z" fill="white"/>
<path d="M297.422 224.766V263.229H230.112L230.113 224.766H297.422Z" stroke="white" stroke-opacity="0.31" stroke-width="4.80786"/>
<path d="M116.752 240.249C125.726 240.249 133.547 239.351 140.214 237.557C146.881 235.505 152.266 232.428 156.368 228.325C160.471 223.966 163.804 219.479 166.369 214.863C168.933 210.248 170.728 204.35 171.753 197.171C173.036 189.991 173.805 183.452 174.061 177.555C174.574 171.657 174.83 164.349 174.83 155.631C174.83 146.912 174.574 139.605 174.061 133.707C173.805 127.809 173.036 121.271 171.753 114.091C170.728 106.911 168.933 101.013 166.369 96.3979C163.804 91.7824 160.471 87.4233 156.368 83.3206C152.266 78.9614 146.881 75.8844 140.214 74.0895C133.547 72.0381 125.726 71.0124 116.752 71.0124C107.777 71.0124 99.9561 72.0381 93.2892 74.0895C86.6223 75.8844 81.2375 78.9614 77.1348 83.3206C73.0321 87.4233 69.6987 91.7824 67.1345 96.3979C64.5703 101.013 62.6472 106.911 61.3651 114.091C60.3394 121.271 59.5701 127.809 59.0573 133.707C58.8009 139.605 58.6727 146.912 58.6727 155.631C58.6727 164.349 58.8009 171.657 59.0573 177.555C59.5701 183.452 60.3394 189.991 61.3651 197.171C62.6472 204.35 64.5703 210.248 67.1345 214.863C69.6987 219.479 73.0321 223.966 77.1348 228.325C81.2375 232.428 86.6223 235.505 93.2892 237.557C99.9561 239.351 107.777 240.249 116.752 240.249ZM116.752 271.019C99.8279 271.019 85.212 268.84 72.9039 264.481C60.8522 260.121 51.4929 254.608 44.826 247.942C38.1592 241.275 32.7744 232.556 28.6717 221.787C24.8254 211.017 22.3894 200.76 21.3637 191.017C20.338 181.016 19.8252 169.221 19.8252 155.631C19.8252 142.041 20.338 130.373 21.3637 120.63C22.3894 110.629 24.8254 100.244 28.6717 89.4746C32.7744 78.705 38.1592 69.9868 44.826 63.3199C51.4929 56.653 60.8522 51.14 72.9039 46.7809C85.212 42.4217 99.8279 40.2422 116.752 40.2422C133.675 40.2422 148.163 42.4217 160.215 46.7809C172.523 51.14 182.01 56.653 188.677 63.3199C195.344 69.9868 200.601 78.705 204.447 89.4746C208.55 100.244 211.114 110.629 212.139 120.63C213.165 130.373 213.678 142.041 213.678 155.631C213.678 169.221 213.165 181.016 212.139 191.017C211.114 200.76 208.55 211.017 204.447 221.787C200.601 232.556 195.344 241.275 188.677 247.942C182.01 254.608 172.523 260.121 160.215 264.481C148.163 268.84 133.675 271.019 116.752 271.019Z" fill="white" fill-opacity="0.5"/>
<path d="M116.752 42.0449C133.529 42.045 147.798 44.2073 159.602 48.4766L159.612 48.4805C171.759 52.7824 180.984 58.1762 187.402 64.5947C193.845 71.037 198.974 79.5103 202.749 90.0811L202.755 90.0986L202.762 90.1162C206.816 100.76 209.338 110.991 210.346 120.813L210.347 120.818C211.364 130.481 211.875 142.082 211.875 155.631C211.875 169.179 211.363 180.911 210.346 190.833C209.339 200.396 206.818 210.498 202.762 221.145L202.755 221.163L202.749 221.181C198.974 231.751 193.845 240.225 187.402 246.667C180.984 253.085 171.759 258.479 159.612 262.781L159.602 262.785C147.798 267.054 133.529 269.216 116.752 269.216C99.9813 269.216 85.5823 267.056 73.5176 262.785C61.6301 258.485 52.5259 253.092 46.1006 246.667C39.6488 240.215 34.3883 231.728 30.3564 221.145C26.6768 210.834 24.3147 201.03 23.2549 191.728L23.1572 190.828C22.1399 180.907 21.6279 169.177 21.6279 155.631C21.6279 142.082 22.1401 130.481 23.1572 120.818V120.813C24.1651 110.986 26.5597 100.755 30.3564 90.1162C34.3883 79.5328 39.6489 71.0465 46.1006 64.5947C52.5259 58.1694 61.6293 52.7753 73.5166 48.4756C85.5815 44.2044 99.981 42.0449 116.752 42.0449ZM116.752 69.21C107.656 69.21 99.6559 70.2462 92.7812 72.3584C85.8676 74.2261 80.1919 77.4485 75.8369 82.0693C71.638 86.2722 68.2068 90.7556 65.5586 95.5225C62.8688 100.364 60.8946 106.467 59.5898 113.773L59.5801 113.836C58.5507 121.041 57.777 127.614 57.2607 133.551L57.2578 133.59L57.2559 133.629C56.9979 139.562 56.8701 146.898 56.8701 155.631C56.8701 164.364 56.9979 171.7 57.2559 177.633L57.2578 177.672L57.2607 177.711C57.777 183.648 58.5507 190.22 59.5801 197.426L59.585 197.457L59.5898 197.487C60.8946 204.794 62.8687 210.897 65.5586 215.739C68.2041 220.501 71.6307 225.108 75.8223 229.562L75.8408 229.581L75.8604 229.601C80.209 233.949 85.8676 237.159 92.7588 239.279L92.79 239.289L92.8203 239.298C99.6778 241.144 107.664 242.052 116.752 242.052C125.84 242.052 133.825 241.144 140.683 239.298L140.714 239.289L140.744 239.279C147.636 237.159 153.295 233.949 157.644 229.601L157.662 229.581L157.682 229.562C161.873 225.108 165.299 220.501 167.944 215.739C170.64 210.888 172.481 204.782 173.528 197.487C174.819 190.262 175.598 183.655 175.86 177.672C176.377 171.711 176.634 164.36 176.634 155.631C176.634 146.898 176.376 139.545 175.859 133.583C175.613 127.976 174.914 121.822 173.765 115.124L173.528 113.773C172.481 106.479 170.639 100.374 167.944 95.5225C165.296 90.7556 161.865 86.2722 157.666 82.0693C153.311 77.4483 147.635 74.2261 140.721 72.3584C133.846 70.2465 125.847 69.21 116.752 69.21Z" stroke="white" stroke-opacity="0.7" stroke-width="3.60589"/>
</svg>
