<svg width="320" height="121" viewBox="0 0 320 121" fill="none" xmlns="http://www.w3.org/2000/svg">
<path d="M210.787 37.5446H206.797L218.049 68.1868L229.222 37.5446H225.31V32.1168H240.712V37.5446H237.362L217.73 89.8124C217.091 91.5679 216.294 92.8725 215.336 93.7237C214.379 94.5748 213.048 95 211.346 95H202.249V89.4143L207.756 88.9357C209.032 88.8293 209.91 88.5361 210.389 88.0574C210.867 87.6318 211.319 86.8338 211.744 85.6643L214.299 78.641L198.737 37.5446H195.385V32.1168H210.787V37.5446ZM42.5338 31C46.045 31 49.0517 31.4525 51.5522 32.3569C54.1055 33.2613 56.0737 34.4049 57.4569 35.788C58.84 37.171 59.9304 38.9799 60.7283 41.2141C61.5795 43.4484 62.1126 45.6033 62.3254 47.6781C62.5382 49.6996 62.6445 52.1203 62.6445 54.9398C62.6445 57.7594 62.5382 60.2072 62.3254 62.2821C62.1126 64.3036 61.5795 66.4312 60.7283 68.6654C59.9304 70.8997 58.84 72.7084 57.4569 74.0916C56.0737 75.4748 54.1057 76.6198 51.5522 77.5242C49.0517 78.4286 46.045 78.8795 42.5338 78.8795C39.0229 78.8794 35.99 78.4286 33.4366 77.5242C30.9364 76.6199 28.9956 75.4747 27.6124 74.0916C26.2293 72.7084 25.1116 70.8998 24.2604 68.6654C23.4625 66.4312 22.9567 64.3035 22.7439 62.2821C22.5311 60.2072 22.4248 57.7594 22.4248 54.9398C22.4248 52.1203 22.5311 49.6996 22.7439 47.6781C22.9567 45.6033 23.4624 43.4484 24.2604 41.2141C25.1116 38.9798 26.2293 37.1711 27.6124 35.788C28.9955 34.405 30.9367 33.2612 33.4366 32.3569C35.99 31.4526 39.0229 31.0001 42.5338 31ZM130.049 31C141.008 31 146.488 35.2564 146.488 43.7684V72.3366H151.276V77.7627H141.22L139.944 73.2149C135.156 76.9919 130.021 78.8795 124.542 78.8795C119.754 78.8794 116.324 77.7891 114.249 75.608C112.174 73.4269 111.135 70.2621 111.135 66.1128C111.135 61.4847 112.119 58.1057 114.088 55.9776C116.056 53.8496 119.834 52.5725 125.42 52.1469L138.427 51.3492V44.2471C138.427 41.8531 137.63 40.1234 136.034 39.0594C134.438 37.9422 132.362 37.3834 129.808 37.3834C126.085 37.3835 123.504 38.076 122.068 39.4591C120.685 40.7891 119.913 42.9441 119.754 45.9231L113.051 45.604C113.424 40.7096 114.807 37.0652 117.201 34.6712C119.648 32.224 123.931 31 130.049 31ZM173.491 31C179.13 31 183.308 32.5959 186.021 35.788L185.94 32.1168H191.447V48.5564H186.259C185.993 43.9813 184.984 40.9745 183.228 39.538C181.526 38.1016 178.519 37.3834 174.21 37.3834C171.337 37.3834 169.235 37.9954 167.905 39.219C166.575 40.3894 165.91 41.9596 165.91 43.928C165.91 45.7366 166.443 47.1202 167.507 48.0778C168.624 49.0351 170.406 49.8326 172.853 50.4709L180.674 52.5466C184.983 53.6638 188.122 55.1793 190.09 57.0944C192.058 58.9564 193.042 61.7763 193.042 65.5535C193.042 74.438 187.696 78.8795 177.003 78.8795C170.832 78.8794 166.23 76.9385 163.198 73.0554L163.358 77.7627H157.851V61.3248H162.958C163.703 68.7722 167.879 72.4959 175.486 72.4961C181.817 72.4961 184.983 70.3152 184.983 65.9532C184.983 64.3573 184.477 63.0801 183.467 62.1225C182.456 61.1117 180.7 60.2598 178.2 59.5682L170.379 57.573C165.964 56.2963 162.772 54.7534 160.803 52.9446C158.835 51.0826 157.851 48.0772 157.851 43.928C157.851 40.0976 159.154 36.9845 161.76 34.5905C164.367 32.1966 168.278 31.0001 173.491 31ZM256.933 31C262.572 31.0001 266.748 32.596 269.461 35.788L269.381 32.1168H274.888V48.5564H269.702C269.436 43.9812 268.424 40.9744 266.669 39.538C264.966 38.1017 261.959 37.3834 257.65 37.3834C254.778 37.3835 252.677 37.9958 251.348 39.219C250.018 40.3894 249.352 41.9596 249.352 43.928C249.352 45.7366 249.884 47.1202 250.948 48.0778C252.065 49.0352 253.848 49.8325 256.295 50.4709L264.114 52.5466C268.423 53.6637 271.562 55.1794 273.531 57.0944C275.499 58.9564 276.485 61.7763 276.485 65.5535C276.485 74.4377 271.137 78.8793 260.445 78.8795C254.274 78.8795 249.671 76.9388 246.639 73.0554L246.798 77.7627H241.291V61.3248H246.398C247.143 68.7725 251.321 72.4961 258.928 72.4961C265.258 72.496 268.423 70.3151 268.424 65.9532C268.424 64.3572 267.918 63.0801 266.907 62.1225C265.896 61.1118 264.141 60.2597 261.641 59.5682L253.821 57.573C249.406 56.2962 246.212 54.7534 244.244 52.9446C242.276 51.0826 241.291 48.077 241.291 43.928C241.291 40.0975 242.596 36.9846 245.203 34.5905C247.809 32.1968 251.72 31 256.933 31ZM79.5929 37.5446H75.5238L86.8546 68.9056L98.0276 37.5446H94.0374V32.1168H109.518V37.5446H106.247L91.3235 77.7627H82.3858L67.4644 37.5446H64.1912V32.1168H79.5929V37.5446ZM297.576 77.7627H282.613V68.7847H297.576V77.7627ZM126.937 57.7326C123.798 57.8922 121.669 58.5573 120.552 59.7277C119.488 60.8449 118.956 62.8936 118.956 65.8726C118.956 68.2662 119.541 70.0219 120.711 71.1392C121.882 72.2564 123.851 72.8152 126.618 72.8152C131.086 72.8151 135.022 71.193 138.427 67.9483V57.0155L126.937 57.7326ZM42.5338 37.3834C40.6721 37.3834 39.05 37.5977 37.667 38.0232C36.2837 38.3956 35.1661 39.0333 34.3149 39.9377C33.4637 40.7889 32.7728 41.6941 32.2408 42.6516C31.709 43.6091 31.3094 44.8319 31.0434 46.3211C30.8306 47.8107 30.6712 49.1683 30.5648 50.392C30.5116 51.6154 30.4842 53.1313 30.4842 54.9398C30.4842 56.7486 30.5116 58.2656 30.5648 59.4892C30.6712 60.7127 30.8307 62.0691 31.0434 63.5584C31.3094 65.048 31.7088 66.2719 32.2408 67.2296C32.7728 68.187 33.4638 69.1181 34.3149 70.0224C35.1661 70.8736 36.2837 71.5113 37.667 71.9369C39.05 72.3092 40.6721 72.4961 42.5338 72.4961C44.3958 72.4961 46.0192 72.3093 47.4024 71.9369C48.7855 71.5113 49.9033 70.8735 50.7544 70.0224C51.6055 69.1181 52.2966 68.187 52.8285 67.2296C53.3605 66.2719 53.7325 65.048 53.9453 63.5584C54.2112 62.069 54.3707 60.7127 54.4239 59.4892C54.5303 58.2656 54.5851 56.7486 54.5851 54.9398C54.5851 53.1313 54.5303 51.6154 54.4239 50.392C54.3707 49.1683 54.2113 47.8107 53.9453 46.3211C53.7325 44.832 53.3603 43.609 52.8285 42.6516C52.2965 41.6941 51.6055 40.7888 50.7544 39.9377C49.9033 39.0334 48.7855 38.3956 47.4024 38.0232C46.0192 37.5976 44.3958 37.3834 42.5338 37.3834Z" fill="#191919"/>
</svg>
