<svg width="320" height="121" viewBox="0 0 320 121" fill="none" xmlns="http://www.w3.org/2000/svg">
<path d="M210.786 37.5446H206.796L218.048 68.1868L229.221 37.5446H225.31V32.1168H240.711V37.5446H237.361L217.729 89.8124C217.091 91.5679 216.293 92.8725 215.336 93.7237C214.378 94.5748 213.048 95 211.346 95H202.248V89.4143L207.755 88.9357C209.032 88.8293 209.91 88.5361 210.388 88.0574C210.867 87.6318 211.318 86.8338 211.744 85.6643L214.298 78.641L198.737 37.5446H195.385V32.1168H210.786V37.5446ZM42.5333 31C46.0445 31 49.0513 31.4525 51.5517 32.3569C54.105 33.2613 56.0733 34.4049 57.4564 35.788C58.8395 37.171 59.9299 38.9799 60.7279 41.2141C61.579 43.4484 62.1121 45.6033 62.325 47.6781C62.5377 49.6996 62.644 52.1203 62.644 54.9398C62.644 57.7594 62.5378 60.2072 62.325 62.2821C62.1121 64.3036 61.579 66.4312 60.7279 68.6654C59.9299 70.8997 58.8395 72.7084 57.4564 74.0916C56.0732 75.4748 54.1053 76.6198 51.5517 77.5242C49.0513 78.4286 46.0445 78.8795 42.5333 78.8795C39.0224 78.8794 35.9895 78.4286 33.4361 77.5242C30.9359 76.6199 28.9951 75.4747 27.612 74.0916C26.2288 72.7084 25.1111 70.8998 24.2599 68.6654C23.462 66.4312 22.9562 64.3035 22.7434 62.2821C22.5306 60.2072 22.4243 57.7594 22.4243 54.9398C22.4243 52.1203 22.5306 49.6996 22.7434 47.6781C22.9562 45.6033 23.4619 43.4484 24.2599 41.2141C25.1111 38.9798 26.2288 37.1711 27.612 35.788C28.995 34.405 30.9362 33.2612 33.4361 32.3569C35.9895 31.4526 39.0224 31.0001 42.5333 31ZM130.048 31C141.007 31 146.488 35.2564 146.488 43.7684V72.3366H151.276V77.7627H141.219L139.943 73.2149C135.155 76.9919 130.021 78.8795 124.541 78.8795C119.754 78.8794 116.323 77.7891 114.248 75.608C112.174 73.4269 111.135 70.2621 111.135 66.1128C111.135 61.4847 112.119 58.1057 114.087 55.9776C116.056 53.8496 119.834 52.5725 125.42 52.1469L138.427 51.3492V44.2471C138.427 41.8531 137.629 40.1234 136.033 39.0594C134.437 37.9422 132.362 37.3834 129.808 37.3834C126.084 37.3835 123.504 38.076 122.068 39.4591C120.685 40.7891 119.913 42.9441 119.753 45.9231L113.051 45.604C113.423 40.7096 114.807 37.0652 117.201 34.6712C119.648 32.224 123.93 31 130.048 31ZM173.491 31C179.13 31 183.307 32.5959 186.02 35.788L185.94 32.1168H191.447V48.5564H186.259C185.993 43.9813 184.983 40.9745 183.228 39.538C181.525 38.1016 178.519 37.3834 174.209 37.3834C171.337 37.3834 169.235 37.9954 167.905 39.219C166.575 40.3894 165.91 41.9596 165.91 43.928C165.91 45.7366 166.443 47.1202 167.507 48.0778C168.624 49.0351 170.406 49.8326 172.852 50.4709L180.673 52.5466C184.982 53.6638 188.121 55.1793 190.09 57.0944C192.058 58.9564 193.042 61.7763 193.042 65.5535C193.042 74.438 187.695 78.8795 177.002 78.8795C170.831 78.8794 166.23 76.9385 163.198 73.0554L163.357 77.7627H157.85V61.3248H162.957C163.702 68.7722 167.879 72.4959 175.486 72.4961C181.816 72.4961 184.982 70.3152 184.983 65.9532C184.983 64.3573 184.477 63.0801 183.466 62.1225C182.455 61.1117 180.7 60.2598 178.2 59.5682L170.379 57.573C165.963 56.2963 162.771 54.7534 160.803 52.9446C158.835 51.0826 157.85 48.0772 157.85 43.928C157.85 40.0976 159.153 36.9845 161.76 34.5905C164.367 32.1966 168.277 31.0001 173.491 31ZM256.933 31C262.572 31.0001 266.748 32.596 269.461 35.788L269.38 32.1168H274.887V48.5564H269.701C269.435 43.9812 268.424 40.9744 266.668 39.538C264.966 38.1017 261.959 37.3834 257.65 37.3834C254.778 37.3835 252.677 37.9958 251.347 39.219C250.017 40.3894 249.352 41.9596 249.352 43.928C249.352 45.7366 249.883 47.1202 250.947 48.0778C252.065 49.0352 253.848 49.8325 256.295 50.4709L264.114 52.5466C268.423 53.6637 271.562 55.1794 273.53 57.0944C275.499 58.9564 276.484 61.7763 276.484 65.5535C276.484 74.4377 271.137 78.8793 260.444 78.8795C254.273 78.8795 249.67 76.9388 246.638 73.0554L246.798 77.7627H241.291V61.3248H246.398C247.143 68.7725 251.32 72.4961 258.928 72.4961C265.258 72.496 268.423 70.3151 268.423 65.9532C268.423 64.3572 267.917 63.0801 266.907 62.1225C265.896 61.1118 264.14 60.2597 261.64 59.5682L253.821 57.573C249.405 56.2962 246.212 54.7534 244.243 52.9446C242.275 51.0826 241.291 48.077 241.291 43.928C241.291 40.0975 242.595 36.9846 245.202 34.5905C247.809 32.1968 251.719 31 256.933 31ZM79.5924 37.5446H75.5233L86.8541 68.9056L98.0271 37.5446H94.0369V32.1168H109.517V37.5446H106.246L91.323 77.7627H82.3853L67.4639 37.5446H64.1908V32.1168H79.5924V37.5446ZM297.576 77.7627H282.612V68.7847H297.576V77.7627ZM126.936 57.7326C123.797 57.8922 121.668 58.5573 120.551 59.7277C119.487 60.8449 118.956 62.8936 118.956 65.8726C118.956 68.2662 119.541 70.0219 120.711 71.1392C121.881 72.2564 123.851 72.8152 126.617 72.8152C131.085 72.8151 135.022 71.193 138.427 67.9483V57.0155L126.936 57.7326ZM42.5333 37.3834C40.6716 37.3834 39.0495 37.5977 37.6665 38.0232C36.2833 38.3956 35.1656 39.0333 34.3144 39.9377C33.4633 40.7889 32.7723 41.6941 32.2404 42.6516C31.7085 43.6091 31.3089 44.8319 31.0429 46.3211C30.8301 47.8107 30.6707 49.1683 30.5643 50.392C30.5111 51.6154 30.4837 53.1313 30.4837 54.9398C30.4837 56.7486 30.5111 58.2656 30.5643 59.4892C30.6707 60.7127 30.8302 62.0691 31.0429 63.5584C31.3089 65.048 31.7084 66.2719 32.2404 67.2296C32.7723 68.187 33.4633 69.1181 34.3144 70.0224C35.1656 70.8736 36.2833 71.5113 37.6665 71.9369C39.0495 72.3092 40.6716 72.4961 42.5333 72.4961C44.3953 72.4961 46.0187 72.3093 47.4019 71.9369C48.785 71.5113 49.9028 70.8735 50.754 70.0224C51.605 69.1181 52.2961 68.187 52.828 67.2296C53.36 66.2719 53.732 65.048 53.9448 63.5584C54.2108 62.069 54.3702 60.7127 54.4234 59.4892C54.5298 58.2656 54.5846 56.7486 54.5846 54.9398C54.5846 53.1313 54.5298 51.6154 54.4234 50.392C54.3702 49.1683 54.2108 47.8107 53.9448 46.3211C53.732 44.832 53.3598 43.609 52.828 42.6516C52.2961 41.6941 51.605 40.7888 50.754 39.9377C49.9028 39.0334 48.785 38.3956 47.4019 38.0232C46.0187 37.5976 44.3953 37.3834 42.5333 37.3834Z" fill="url(#paint0_linear_1625_12801)"/>
<path d="M210.786 37.5446H206.796L218.048 68.1868L229.221 37.5446H225.31V32.1168H240.711V37.5446H237.361L217.729 89.8124C217.091 91.5679 216.293 92.8725 215.336 93.7237C214.378 94.5748 213.048 95 211.346 95H202.248V89.4143L207.755 88.9357C209.032 88.8293 209.91 88.5361 210.388 88.0574C210.867 87.6318 211.318 86.8338 211.744 85.6643L214.298 78.641L198.737 37.5446H195.385V32.1168H210.786V37.5446ZM42.5333 31C46.0445 31 49.0513 31.4525 51.5517 32.3569C54.105 33.2613 56.0733 34.4049 57.4564 35.788C58.8395 37.171 59.9299 38.9799 60.7279 41.2141C61.579 43.4484 62.1121 45.6033 62.325 47.6781C62.5377 49.6996 62.644 52.1203 62.644 54.9398C62.644 57.7594 62.5378 60.2072 62.325 62.2821C62.1121 64.3036 61.579 66.4312 60.7279 68.6654C59.9299 70.8997 58.8395 72.7084 57.4564 74.0916C56.0732 75.4748 54.1053 76.6198 51.5517 77.5242C49.0513 78.4286 46.0445 78.8795 42.5333 78.8795C39.0224 78.8794 35.9895 78.4286 33.4361 77.5242C30.9359 76.6199 28.9951 75.4747 27.612 74.0916C26.2288 72.7084 25.1111 70.8998 24.2599 68.6654C23.462 66.4312 22.9562 64.3035 22.7434 62.2821C22.5306 60.2072 22.4243 57.7594 22.4243 54.9398C22.4243 52.1203 22.5306 49.6996 22.7434 47.6781C22.9562 45.6033 23.4619 43.4484 24.2599 41.2141C25.1111 38.9798 26.2288 37.1711 27.612 35.788C28.995 34.405 30.9362 33.2612 33.4361 32.3569C35.9895 31.4526 39.0224 31.0001 42.5333 31ZM130.048 31C141.007 31 146.488 35.2564 146.488 43.7684V72.3366H151.276V77.7627H141.219L139.943 73.2149C135.155 76.9919 130.021 78.8795 124.541 78.8795C119.754 78.8794 116.323 77.7891 114.248 75.608C112.174 73.4269 111.135 70.2621 111.135 66.1128C111.135 61.4847 112.119 58.1057 114.087 55.9776C116.056 53.8496 119.834 52.5725 125.42 52.1469L138.427 51.3492V44.2471C138.427 41.8531 137.629 40.1234 136.033 39.0594C134.437 37.9422 132.362 37.3834 129.808 37.3834C126.084 37.3835 123.504 38.076 122.068 39.4591C120.685 40.7891 119.913 42.9441 119.753 45.9231L113.051 45.604C113.423 40.7096 114.807 37.0652 117.201 34.6712C119.648 32.224 123.93 31 130.048 31ZM173.491 31C179.13 31 183.307 32.5959 186.02 35.788L185.94 32.1168H191.447V48.5564H186.259C185.993 43.9813 184.983 40.9745 183.228 39.538C181.525 38.1016 178.519 37.3834 174.209 37.3834C171.337 37.3834 169.235 37.9954 167.905 39.219C166.575 40.3894 165.91 41.9596 165.91 43.928C165.91 45.7366 166.443 47.1202 167.507 48.0778C168.624 49.0351 170.406 49.8326 172.852 50.4709L180.673 52.5466C184.982 53.6638 188.121 55.1793 190.09 57.0944C192.058 58.9564 193.042 61.7763 193.042 65.5535C193.042 74.438 187.695 78.8795 177.002 78.8795C170.831 78.8794 166.23 76.9385 163.198 73.0554L163.357 77.7627H157.85V61.3248H162.957C163.702 68.7722 167.879 72.4959 175.486 72.4961C181.816 72.4961 184.982 70.3152 184.983 65.9532C184.983 64.3573 184.477 63.0801 183.466 62.1225C182.455 61.1117 180.7 60.2598 178.2 59.5682L170.379 57.573C165.963 56.2963 162.771 54.7534 160.803 52.9446C158.835 51.0826 157.85 48.0772 157.85 43.928C157.85 40.0976 159.153 36.9845 161.76 34.5905C164.367 32.1966 168.277 31.0001 173.491 31ZM256.933 31C262.572 31.0001 266.748 32.596 269.461 35.788L269.38 32.1168H274.887V48.5564H269.701C269.435 43.9812 268.424 40.9744 266.668 39.538C264.966 38.1017 261.959 37.3834 257.65 37.3834C254.778 37.3835 252.677 37.9958 251.347 39.219C250.017 40.3894 249.352 41.9596 249.352 43.928C249.352 45.7366 249.883 47.1202 250.947 48.0778C252.065 49.0352 253.848 49.8325 256.295 50.4709L264.114 52.5466C268.423 53.6637 271.562 55.1794 273.53 57.0944C275.499 58.9564 276.484 61.7763 276.484 65.5535C276.484 74.4377 271.137 78.8793 260.444 78.8795C254.273 78.8795 249.67 76.9388 246.638 73.0554L246.798 77.7627H241.291V61.3248H246.398C247.143 68.7725 251.32 72.4961 258.928 72.4961C265.258 72.496 268.423 70.3151 268.423 65.9532C268.423 64.3572 267.917 63.0801 266.907 62.1225C265.896 61.1118 264.14 60.2597 261.64 59.5682L253.821 57.573C249.405 56.2962 246.212 54.7534 244.243 52.9446C242.275 51.0826 241.291 48.077 241.291 43.928C241.291 40.0975 242.595 36.9846 245.202 34.5905C247.809 32.1968 251.719 31 256.933 31ZM79.5924 37.5446H75.5233L86.8541 68.9056L98.0271 37.5446H94.0369V32.1168H109.517V37.5446H106.246L91.323 77.7627H82.3853L67.4639 37.5446H64.1908V32.1168H79.5924V37.5446ZM297.576 77.7627H282.612V68.7847H297.576V77.7627ZM126.936 57.7326C123.797 57.8922 121.668 58.5573 120.551 59.7277C119.487 60.8449 118.956 62.8936 118.956 65.8726C118.956 68.2662 119.541 70.0219 120.711 71.1392C121.881 72.2564 123.851 72.8152 126.617 72.8152C131.085 72.8151 135.022 71.193 138.427 67.9483V57.0155L126.936 57.7326ZM42.5333 37.3834C40.6716 37.3834 39.0495 37.5977 37.6665 38.0232C36.2833 38.3956 35.1656 39.0333 34.3144 39.9377C33.4633 40.7889 32.7723 41.6941 32.2404 42.6516C31.7085 43.6091 31.3089 44.8319 31.0429 46.3211C30.8301 47.8107 30.6707 49.1683 30.5643 50.392C30.5111 51.6154 30.4837 53.1313 30.4837 54.9398C30.4837 56.7486 30.5111 58.2656 30.5643 59.4892C30.6707 60.7127 30.8302 62.0691 31.0429 63.5584C31.3089 65.048 31.7084 66.2719 32.2404 67.2296C32.7723 68.187 33.4633 69.1181 34.3144 70.0224C35.1656 70.8736 36.2833 71.5113 37.6665 71.9369C39.0495 72.3092 40.6716 72.4961 42.5333 72.4961C44.3953 72.4961 46.0187 72.3093 47.4019 71.9369C48.785 71.5113 49.9028 70.8735 50.754 70.0224C51.605 69.1181 52.2961 68.187 52.828 67.2296C53.36 66.2719 53.732 65.048 53.9448 63.5584C54.2108 62.069 54.3702 60.7127 54.4234 59.4892C54.5298 58.2656 54.5846 56.7486 54.5846 54.9398C54.5846 53.1313 54.5298 51.6154 54.4234 50.392C54.3702 49.1683 54.2108 47.8107 53.9448 46.3211C53.732 44.832 53.3598 43.609 52.828 42.6516C52.2961 41.6941 51.605 40.7888 50.754 39.9377C49.9028 39.0334 48.785 38.3956 47.4019 38.0232C46.0187 37.5976 44.3953 37.3834 42.5333 37.3834Z" fill="#3B2AEA"/>
<defs>
<linearGradient id="paint0_linear_1625_12801" x1="160" y1="21.8283" x2="160" y2="45.904" gradientUnits="userSpaceOnUse">
<stop stop-color="#BAA3FD"/>
<stop offset="1" stop-color="#3B2AEA"/>
</linearGradient>
</defs>
</svg>
