<svg width="320" height="121" viewBox="0 0 320 121" fill="none" xmlns="http://www.w3.org/2000/svg">
<path d="M268.966 32.1172H274.473V48.5567H269.285C269.019 43.9813 268.009 40.9754 266.253 39.5389C264.55 38.1025 261.545 37.3842 257.235 37.3842C254.362 37.3842 252.261 37.9961 250.931 39.2197C249.601 40.3902 248.936 41.9596 248.936 43.9281C248.936 45.737 249.468 47.1202 250.532 48.0779C251.649 49.0355 253.431 49.8335 255.878 50.472L263.699 52.5468C268.009 53.6641 271.147 55.1803 273.116 57.0956C275.084 58.9577 276.069 61.7774 276.069 65.5547C276.069 74.4395 270.722 78.8819 260.028 78.8819C253.857 78.8819 249.255 76.94 246.222 73.0562L246.382 77.7646H240.875V61.3252H245.983C246.728 68.7735 250.904 72.4976 258.512 72.4976C264.843 72.4976 268.009 70.3163 268.009 65.9538C268.009 64.3577 267.503 63.0808 266.492 62.1232C265.481 61.1124 263.726 60.2611 261.225 59.5695L253.405 57.5744C248.989 56.2976 245.797 54.7547 243.828 52.9459C241.86 51.0838 240.875 48.0779 240.875 43.9281C240.875 40.0976 242.179 36.9852 244.786 34.5911C247.393 32.197 251.303 31 256.517 31C262.156 31 266.333 32.5961 269.046 35.7882L268.966 32.1172Z" fill="white" fill-opacity="0.6"/>
<path d="M256.517 31.499C262.064 31.4991 266.077 33.066 268.666 36.1113L269.575 37.1807L269.544 35.7773L269.475 32.6162H273.974V48.0576H269.75C269.453 43.8588 268.499 40.8771 266.748 39.3057L266.569 39.1533C264.723 37.5997 261.563 36.8857 257.235 36.8857C254.313 36.8858 252.065 37.5045 250.601 38.8457C249.151 40.1219 248.437 41.834 248.437 43.9277C248.437 45.8379 249.002 47.3723 250.198 48.4482L250.208 48.457C251.409 49.4869 253.277 50.3076 255.75 50.9531V50.9541L263.571 53.0293H263.574C267.579 54.0676 270.504 55.4403 272.402 57.1143L272.768 57.4531L272.773 57.458C274.608 59.1936 275.57 61.8591 275.57 65.5547C275.57 69.8933 274.269 73.0648 271.74 75.166C269.193 77.2819 265.318 78.3828 260.028 78.3828C253.968 78.3827 249.53 76.4816 246.616 72.749L245.671 71.541L245.724 73.0732L245.866 77.2656H241.375V61.8242H245.539C245.972 65.4114 247.221 68.1855 249.342 70.0771C251.55 72.0458 254.63 72.9961 258.512 72.9961C261.719 72.9961 264.213 72.4467 265.917 71.2725C267.655 70.0751 268.507 68.2736 268.507 65.9541C268.507 64.243 267.96 62.8267 266.834 61.7607C265.73 60.662 263.876 59.7854 261.358 59.0889L261.348 59.0859L253.528 57.0908H253.527C249.148 55.823 246.048 54.3078 244.166 52.5781C242.343 50.8499 241.375 48.0083 241.375 43.9277C241.375 40.2242 242.629 37.2502 245.124 34.959C247.603 32.6818 251.37 31.499 256.517 31.499Z" stroke="white" stroke-opacity="0.5" stroke-width="0.997539"/>
<path d="M201.829 94.9981V89.4119L207.336 88.9331C208.613 88.8267 209.49 88.5341 209.969 88.0553C210.448 87.6296 210.9 86.8316 211.326 85.6612L213.88 78.6385L198.318 37.5399H194.966V32.1133H210.368V37.5399H206.378L217.63 68.1843L228.803 37.5399H224.892V32.1133H240.294V37.5399H236.943L217.311 89.8109C216.673 91.5666 215.875 92.87 214.917 93.7213C213.959 94.5725 212.629 94.9981 210.927 94.9981H201.829Z" fill="white" fill-opacity="0.6"/>
<path d="M209.87 32.6123V37.041H205.664L205.91 37.7119L217.163 68.3564L217.632 69.6357L218.099 68.3555L229.271 37.7109L229.515 37.041H225.391V32.6123H239.795V37.041H236.597L236.476 37.3643L216.844 89.6357L216.842 89.6406C216.22 91.3516 215.459 92.5719 214.585 93.3486C213.746 94.095 212.548 94.499 210.927 94.499H202.329V89.8691L207.379 89.4297L207.378 89.4287C208.681 89.32 209.712 89.0177 210.322 88.4082L210.321 88.4072C210.887 87.8926 211.368 87.0048 211.794 85.832L214.348 78.8086L214.412 78.6348L214.346 78.4619L198.785 37.3633L198.663 37.041H195.465V32.6123H209.87Z" stroke="white" stroke-opacity="0.5" stroke-width="0.997539"/>
<path d="M185.521 32.1172H191.028V48.5567H185.841C185.575 43.9813 184.564 40.9754 182.808 39.5389C181.106 38.1025 178.1 37.3842 173.79 37.3842C170.917 37.3842 168.816 37.9961 167.486 39.2197C166.156 40.3902 165.491 41.9596 165.491 43.9281C165.491 45.737 166.023 47.1202 167.087 48.0779C168.204 49.0355 169.986 49.8335 172.434 50.472L180.254 52.5468C184.564 53.6641 187.703 55.1803 189.671 57.0956C191.64 58.9577 192.624 61.7774 192.624 65.5547C192.624 74.4395 187.277 78.8819 176.583 78.8819C170.412 78.8819 165.81 76.94 162.777 73.0562L162.937 77.7646H157.431V61.3252H162.538C163.283 68.7735 167.459 72.4976 175.067 72.4976C181.398 72.4976 184.564 70.3163 184.564 65.9538C184.564 64.3577 184.058 63.0808 183.047 62.1232C182.037 61.1124 180.281 60.2611 177.78 59.5695L169.96 57.5744C165.544 56.2976 162.352 54.7547 160.383 52.9459C158.415 51.0838 157.431 48.0779 157.431 43.9281C157.431 40.0976 158.734 36.9852 161.341 34.5911C163.948 32.197 167.858 31 173.072 31C178.712 31 182.888 32.5961 185.601 35.7882L185.521 32.1172Z" fill="white" fill-opacity="0.6"/>
<path d="M173.072 31.499C178.619 31.4991 182.632 33.066 185.221 36.1113L186.13 37.1807L186.1 35.7773L186.03 32.6162H190.529V48.0576H186.306C186.008 43.8588 185.054 40.8771 183.303 39.3057L183.124 39.1533C181.278 37.5997 178.118 36.8857 173.79 36.8857C170.868 36.8858 168.62 37.5045 167.156 38.8457C165.706 40.1219 164.992 41.834 164.992 43.9277C164.992 45.8379 165.558 47.3723 166.753 48.4482L166.763 48.457C167.964 49.4869 169.832 50.3076 172.306 50.9531V50.9541L180.126 53.0293H180.129C184.134 54.0676 187.059 55.4403 188.957 57.1143L189.323 57.4531L189.328 57.458C191.163 59.1936 192.125 61.8591 192.125 65.5547C192.125 69.8933 190.824 73.0648 188.295 75.166C185.748 77.2819 181.873 78.3828 176.583 78.3828C170.523 78.3827 166.085 76.4816 163.171 72.749L162.227 71.541L162.279 73.0732L162.421 77.2656H157.93V61.8242H162.094C162.527 65.4114 163.776 68.1855 165.897 70.0771C168.105 72.0458 171.186 72.9961 175.067 72.9961C178.275 72.9961 180.769 72.4467 182.473 71.2725C184.21 70.0751 185.062 68.2736 185.062 65.9541C185.062 64.243 184.515 62.8267 183.39 61.7607C182.285 60.662 180.431 59.7854 177.913 59.0889L177.903 59.0859L170.083 57.0908H170.082C165.703 55.823 162.603 54.3078 160.721 52.5781C158.898 50.8499 157.93 48.0083 157.93 43.9277C157.93 40.2242 159.184 37.2502 161.679 34.959C164.158 32.6818 167.925 31.499 173.072 31.499Z" stroke="white" stroke-opacity="0.5" stroke-width="0.997539"/>
<path d="M129.626 31.499C135.055 31.499 139.035 32.5554 141.65 34.5859C144.241 36.5981 145.568 39.6277 145.568 43.7686V72.8369H150.356V77.2656H141.177L140.002 73.0811L139.8 72.3613L139.213 72.8242C134.503 76.5404 129.476 78.3827 124.121 78.3828C119.391 78.3828 116.125 77.3036 114.187 75.2666C112.229 73.2083 111.212 70.1841 111.212 66.1133C111.212 61.539 112.188 58.3117 114.033 56.3174C115.865 54.3365 119.473 53.0694 125.036 52.6455L125.035 52.6445L138.037 51.8477L138.504 51.8193V44.2471C138.504 41.7374 137.661 39.8316 135.897 38.6514H135.898C134.195 37.4597 132.012 36.8857 129.387 36.8857C125.752 36.8858 123.056 37.5333 121.453 38.959L121.3 39.0996C119.87 40.4749 119.086 42.6075 118.867 45.4014L113.172 45.1299C113.595 40.5648 114.934 37.221 117.131 35.0234C119.435 32.7199 123.547 31.4991 129.626 31.499ZM137.975 56.5176L126.483 57.2363C123.522 57.3876 121.317 57.9861 120.017 59.1455L119.769 59.3848C118.564 60.6498 118.036 62.8712 118.036 65.874C118.036 68.339 118.638 70.2534 119.946 71.502C121.256 72.7524 123.385 73.3154 126.195 73.3154C130.799 73.3154 134.858 71.6382 138.35 68.3096L138.504 68.1621V56.4854L137.975 56.5176Z" fill="white" stroke="white" stroke-width="0.997539"/>
<path d="M282.198 68.7871L282.198 77.765H297.161V68.7871H282.198Z" fill="white"/>
<path d="M296.662 69.2861V77.2666H282.697V69.2861H296.662Z" stroke="white" stroke-opacity="0.31" stroke-width="0.997539"/>
<path d="M78.6714 32.6123V37.041H74.3892L74.6313 37.709L85.9634 69.0723L86.4351 70.3799L86.9019 69.0703L98.0747 37.707L98.312 37.041H94.1128V32.6123H108.597V37.041H105.477L105.357 37.3662L90.5542 77.2617H82.3101L67.5073 37.3662L67.3872 37.041H64.2671V32.6123H78.6714Z" fill="white" stroke="white" stroke-width="0.997539"/>
<path d="M42.1104 31.499C45.5812 31.499 48.5263 31.9467 50.958 32.8262L50.9619 32.8271C53.4706 33.7157 55.3662 34.8262 56.6807 36.1406C58.0018 37.4617 59.0575 39.2033 59.8359 41.3828L59.8398 41.3926C60.6777 43.5919 61.1975 45.7039 61.4053 47.7295V47.7314C61.6157 49.7305 61.7217 52.1332 61.7217 54.9414C61.7217 57.7487 61.6158 60.1776 61.4053 62.2305C61.1977 64.2024 60.6783 66.2883 59.8398 68.4893H59.8389L59.8359 68.499C59.0575 70.6785 58.0018 72.4201 56.6807 73.7412C55.3662 75.0556 53.4706 76.1662 50.9619 77.0547L50.958 77.0566C48.5263 77.9361 45.581 78.3828 42.1104 78.3828C38.6398 78.3828 35.6657 77.9355 33.1787 77.0547C30.7256 76.167 28.8558 75.0569 27.54 73.7412C26.2182 72.4194 25.1368 70.6776 24.3057 68.499C23.6171 66.5711 23.1511 64.7307 22.9062 62.9766L22.8154 62.2305C22.6049 60.1776 22.499 57.7487 22.499 54.9414C22.499 52.1332 22.605 49.7305 22.8154 47.7314V47.7295C23.0236 45.6996 23.5184 43.5836 24.3047 41.3818C25.1358 39.2036 26.2184 37.4623 27.54 36.1406C28.8564 34.8244 30.727 33.7131 33.1816 32.8252C35.6682 31.945 38.641 31.499 42.1104 31.499ZM42.1104 36.8857C40.2193 36.8857 38.5507 37.1007 37.1123 37.541C35.6594 37.9322 34.4604 38.6095 33.5381 39.585C32.6573 40.4658 31.9365 41.4072 31.3799 42.4092C30.8131 43.4294 30.4002 44.7098 30.1279 46.2344L30.126 46.2432L30.125 46.252C29.9112 47.7485 29.7499 49.1142 29.6426 50.3486L29.6416 50.3594V50.3701C29.588 51.6035 29.5615 53.1284 29.5615 54.9414C29.5615 56.7542 29.588 58.2784 29.6416 59.5117V59.5225L29.6426 59.5332C29.7499 60.7676 29.9112 62.1333 30.125 63.6299L30.126 63.6387L30.1279 63.6475C30.4002 65.1721 30.8131 66.4525 31.3799 67.4727C31.9344 68.4707 32.6516 69.4347 33.5273 70.3652L33.5322 70.3711L33.5381 70.376C34.4574 71.2953 35.6503 71.9713 37.0957 72.416L37.1045 72.418L37.1123 72.4209C38.5483 72.8075 40.2168 72.9961 42.1104 72.9961C44.0039 72.9961 45.6724 72.8075 47.1084 72.4209L47.1162 72.418L47.125 72.416C48.5704 71.9713 49.7633 71.2953 50.6826 70.376L50.6885 70.3711L50.6934 70.3652C51.5691 69.4347 52.2863 68.4707 52.8408 67.4727C53.4091 66.4497 53.7939 65.1682 54.0127 63.6465L54.0137 63.6475C54.2811 62.1496 54.4428 60.7776 54.498 59.5332C54.6061 58.2903 54.6592 56.7584 54.6592 54.9414C54.6592 53.5783 54.629 52.3754 54.5684 51.335L54.498 50.3486C54.4428 49.1042 54.2802 47.7322 54.0127 46.2344C53.7938 44.7131 53.409 43.432 52.8408 42.4092C52.2842 41.4072 51.5634 40.4658 50.6826 39.585C49.7602 38.6094 48.5604 37.9322 47.1074 37.541C45.6693 37.1009 44.001 36.8857 42.1104 36.8857Z" fill="white" stroke="white" stroke-width="0.997539"/>
</svg>
