<svg width="74" height="64" viewBox="0 0 74 64" fill="none" xmlns="http://www.w3.org/2000/svg">
<path d="M51 45.8816L50.9998 54.8816H66V45.8816H51Z" fill="white"/>
<path d="M65.5 46.3816V54.3816H51.5V46.3816H65.5Z" stroke="white" stroke-opacity="0.31"/>
<path d="M27.9217 49.6015C29.7884 49.6015 31.4151 49.4148 32.8017 49.0415C34.1884 48.6148 35.3084 47.9748 36.1617 47.1215C37.0151 46.2148 37.7084 45.2815 38.2417 44.3215C38.7751 43.3615 39.1484 42.1348 39.3617 40.6415C39.6284 39.1481 39.7884 37.7881 39.8417 36.5615C39.9484 35.3348 40.0017 33.8148 40.0017 32.0015C40.0017 30.1881 39.9484 28.6681 39.8417 27.4415C39.7884 26.2148 39.6284 24.8548 39.3617 23.3615C39.1484 21.8681 38.7751 20.6415 38.2417 19.6815C37.7084 18.7215 37.0151 17.8148 36.1617 16.9615C35.3084 16.0548 34.1884 15.4148 32.8017 15.0415C31.4151 14.6148 29.7884 14.4015 27.9217 14.4015C26.0551 14.4015 24.4284 14.6148 23.0417 15.0415C21.6551 15.4148 20.5351 16.0548 19.6817 16.9615C18.8284 17.8148 18.1351 18.7215 17.6017 19.6815C17.0684 20.6415 16.6684 21.8681 16.4017 23.3615C16.1884 24.8548 16.0284 26.2148 15.9217 27.4415C15.8684 28.6681 15.8417 30.1881 15.8417 32.0015C15.8417 33.8148 15.8684 35.3348 15.9217 36.5615C16.0284 37.7881 16.1884 39.1481 16.4017 40.6415C16.6684 42.1348 17.0684 43.3615 17.6017 44.3215C18.1351 45.2815 18.8284 46.2148 19.6817 47.1215C20.5351 47.9748 21.6551 48.6148 23.0417 49.0415C24.4284 49.4148 26.0551 49.6015 27.9217 49.6015ZM27.9217 56.0015C24.4017 56.0015 21.3617 55.5481 18.8017 54.6415C16.2951 53.7348 14.3484 52.5881 12.9617 51.2015C11.5751 49.8148 10.4551 48.0015 9.60172 45.7615C8.80172 43.5215 8.29505 41.3881 8.08172 39.3615C7.86839 37.2815 7.76172 34.8281 7.76172 32.0015C7.76172 29.1748 7.86839 26.7481 8.08172 24.7215C8.29505 22.6415 8.80172 20.4815 9.60172 18.2415C10.4551 16.0015 11.5751 14.1881 12.9617 12.8015C14.3484 11.4148 16.2951 10.2681 18.8017 9.36147C21.3617 8.4548 24.4017 8.00146 27.9217 8.00146C31.4417 8.00146 34.455 8.4548 36.9617 9.36147C39.5217 10.2681 41.4951 11.4148 42.8817 12.8015C44.2684 14.1881 45.3617 16.0015 46.1617 18.2415C47.0151 20.4815 47.5484 22.6415 47.7617 24.7215C47.9751 26.7481 48.0817 29.1748 48.0817 32.0015C48.0817 34.8281 47.9751 37.2815 47.7617 39.3615C47.5484 41.3881 47.0151 43.5215 46.1617 45.7615C45.3617 48.0015 44.2684 49.8148 42.8817 51.2015C41.4951 52.5881 39.5217 53.7348 36.9617 54.6415C34.455 55.5481 31.4417 56.0015 27.9217 56.0015Z" fill="white" fill-opacity="0.5"/>
<path d="M27.9219 8.37646C31.4114 8.37648 34.379 8.8264 36.834 9.71436L36.8369 9.71533C39.3631 10.6101 41.2813 11.732 42.6162 13.0669C43.9562 14.4068 45.0234 16.169 45.8086 18.3677L45.8115 18.3745C46.6548 20.5881 47.1791 22.7164 47.3887 24.7593V24.7603C47.6002 26.77 47.707 29.1833 47.707 32.0015C47.707 34.8188 47.6002 37.2583 47.3887 39.3218C47.1793 41.3111 46.6553 43.4136 45.8115 45.6284L45.8086 45.6353C45.0234 47.8339 43.9562 49.5961 42.6162 50.936C41.2813 52.2709 39.3631 53.3929 36.8369 54.2876L36.834 54.2886C34.379 55.1765 31.4114 55.6265 27.9219 55.6265C24.4326 55.6265 21.4366 55.1765 18.9268 54.2876C16.4555 53.3934 14.5625 52.272 13.2266 50.936C11.8863 49.5956 10.7933 47.833 9.95508 45.6353C9.26244 43.6959 8.7937 41.8426 8.54688 40.0747L8.45508 39.3218C8.2435 37.2583 8.13672 34.8188 8.13672 32.0015C8.13672 29.1833 8.24353 26.77 8.45508 24.7603V24.7593C8.66498 22.7132 9.16294 20.582 9.9541 18.3667C10.7922 16.1692 11.8864 14.4072 13.2266 13.0669C14.5629 11.7305 16.4563 10.6077 18.9287 9.71338C21.4382 8.82495 24.4335 8.37646 27.9219 8.37646ZM27.9219 14.0269C26.2648 14.0269 24.7827 14.1925 23.4795 14.5288L22.9443 14.6792C21.5912 15.0435 20.4655 15.6568 19.582 16.5269L19.4082 16.7046C18.5364 17.5777 17.8235 18.5094 17.2734 19.4995C16.7141 20.5065 16.3036 21.7759 16.0322 23.2954L16.0303 23.3081C15.8162 24.8067 15.6552 26.1739 15.5479 27.4087V27.4175L15.5469 27.4253C15.4932 28.6593 15.4668 30.1851 15.4668 32.0015C15.4668 33.8179 15.4932 35.3437 15.5469 36.5776L15.5479 36.5854V36.5942C15.6284 37.5203 15.7393 38.5207 15.8799 39.5952L16.0303 40.6948L16.0322 40.7075C16.3036 42.227 16.7141 43.4964 17.2734 44.5034C17.8236 45.4938 18.5365 46.4522 19.4082 47.3784L19.417 47.3862C20.2085 48.1777 21.2082 48.7885 22.4062 49.2241L22.9316 49.3999L22.9443 49.4038C24.3706 49.7878 26.0316 49.9761 27.9219 49.9761C29.8121 49.9761 31.4731 49.7878 32.8994 49.4038L32.9121 49.3999C34.3453 48.9589 35.5213 48.2905 36.4258 47.3862L36.4268 47.3872L36.4346 47.3784C37.3064 46.4521 38.0191 45.4939 38.5693 44.5034C39.1315 43.4915 39.5149 42.2167 39.7324 40.6938C39.9999 39.193 40.1628 37.8206 40.2168 36.5776L40.2158 36.5767C40.3228 35.3385 40.377 33.8127 40.377 32.0015C40.377 30.1898 40.3228 28.6636 40.2158 27.4253H40.2168C40.1627 26.1821 40 24.8093 39.7324 23.3081H39.7334C39.5158 21.7854 39.1315 20.5114 38.5693 19.4995C38.0866 18.6305 37.4789 17.8067 36.748 17.0278L36.4268 16.6968C35.5198 15.7364 34.3377 15.0667 32.8984 14.6792C31.4706 14.2417 29.8098 14.0269 27.9219 14.0269Z" stroke="white" stroke-opacity="0.7" stroke-width="0.75"/>
</svg>
